<svg xmlns="http://www.w3.org/2000/svg" width="18" height="18" viewBox="0 0 18 18" fill="none">
  <path d="M5.94827 0.114293C4.58478 -0.0380976 3.17574 -0.0380976 1.81224 0.114293C0.935063 0.212331 0.22576 0.903085 0.122317 1.78752C-0.0407725 3.18194 -0.0407724 4.59061 0.122317 5.98503C0.22576 6.86947 0.935063 7.56022 1.81224 7.65826C3.17574 7.81065 4.58478 7.81065 5.94827 7.65826C6.82545 7.56022 7.53475 6.86947 7.6382 5.98503C7.80129 4.59061 7.80129 3.18194 7.6382 1.78752C7.53475 0.903085 6.82545 0.212331 5.94827 0.114293Z" fill="white" fill-opacity="0.7"/>
  <path d="M5.94827 10.1143C4.58478 9.9619 3.17574 9.9619 1.81224 10.1143C0.935063 10.2123 0.22576 10.9031 0.122317 11.7875C-0.0407725 13.1819 -0.0407724 14.5906 0.122317 15.985C0.22576 16.8695 0.935063 17.5602 1.81224 17.6583C3.17574 17.8106 4.58478 17.8106 5.94827 17.6583C6.82545 17.5602 7.53475 16.8695 7.6382 15.985C7.80129 14.5906 7.80129 13.1819 7.6382 11.7875C7.53475 10.9031 6.82545 10.2123 5.94827 10.1143Z" fill="white" fill-opacity="0.7"/>
  <path d="M15.9483 0.114293C14.5848 -0.0380976 13.1758 -0.0380976 11.8123 0.114293C10.9351 0.212331 10.2258 0.903085 10.1223 1.78752C9.95924 3.18194 9.95924 4.59061 10.1223 5.98503C10.2258 6.86947 10.9351 7.56022 11.8123 7.65826C13.1758 7.81065 14.5848 7.81065 15.9483 7.65826C16.8255 7.56022 17.5348 6.86947 17.6382 5.98503C17.8013 4.59061 17.8013 3.18194 17.6382 1.78752C17.5348 0.903085 16.8255 0.212331 15.9483 0.114293Z" fill="white" fill-opacity="0.7"/>
  <path d="M15.9483 10.1143C14.5848 9.9619 13.1758 9.9619 11.8123 10.1143C10.9351 10.2123 10.2258 10.9031 10.1223 11.7875C9.95924 13.1819 9.95924 14.5906 10.1223 15.985C10.2258 16.8695 10.9351 17.5602 11.8123 17.6583C13.1758 17.8106 14.5848 17.8106 15.9483 17.6583C16.8255 17.5602 17.5348 16.8695 17.6382 15.985C17.8013 14.5906 17.8013 13.1819 17.6382 11.7875C17.5348 10.9031 16.8255 10.2123 15.9483 10.1143Z" fill="white" fill-opacity="0.7"/>
</svg>