<svg xmlns="http://www.w3.org/2000/svg" width="30" height="30" viewBox="0 0 30 30" fill="none">
  <path d="M17.5001 22.5H11.2501C9.66146 22.4955 8.11527 21.9868 6.8344 21.047C5.55354 20.1073 4.60415 18.7851 4.12311 17.271C3.64206 15.757 3.6542 14.1293 4.15777 12.6226C4.66134 11.1159 5.63034 9.80799 6.92508 8.88745" stroke="white" stroke-opacity="0.7" stroke-width="2" stroke-linecap="round" stroke-linejoin="round"/>
  <path d="M15 20L17.5 22.5L15 25" stroke="white" stroke-opacity="0.7" stroke-width="2" stroke-linecap="round" stroke-linejoin="round"/>
  <path d="M12.5 7.5H18.75C20.3386 7.50443 21.8848 8.01319 23.1657 8.95294C24.4465 9.89268 25.3959 11.2149 25.877 12.7289C26.358 14.243 26.3459 15.8707 25.8423 17.3774C25.3387 18.8841 24.3697 20.192 23.075 21.1125" stroke="white" stroke-opacity="0.7" stroke-width="2" stroke-linecap="round" stroke-linejoin="round"/>
  <path d="M15 10L12.5 7.5L15 5" stroke="white" stroke-opacity="0.7" stroke-width="2" stroke-linecap="round" stroke-linejoin="round"/>
</svg>