<svg width="24" height="24" viewBox="0 0 24 24" fill="none" xmlns="http://www.w3.org/2000/svg">
<g id="Icon Frame">
<circle id="Ellipse 41" cx="12" cy="12" r="2" stroke="white" stroke-width="2"/>
<path id="Vector" d="M5.49353 5.82831C4.5638 6.83041 3.88868 8.01962 3.49558 9.2937L5.09489 10.2171C6.42822 10.9869 6.42822 12.9114 5.09489 13.6812L3.49387 14.6055C3.68908 15.2355 3.95704 15.8538 4.30074 16.4491C4.64443 17.0444 5.04586 17.5856 5.49386 18.0696L7.09491 17.1453C8.42825 16.3755 10.0949 17.3377 10.0949 18.8773L10.0949 20.7241C11.3948 21.0207 12.7623 21.0306 14.095 20.7265L14.095 18.8774C14.095 17.3378 15.7617 16.3755 17.095 17.1453L18.6964 18.0699C19.6261 17.0678 20.3013 15.8786 20.6944 14.6045L19.095 13.6811C17.7617 12.9113 17.7617 10.9868 19.095 10.217L20.6961 9.29264C20.5008 8.66262 20.2329 8.04439 19.8892 7.44911C19.5455 6.8538 19.1441 6.31261 18.696 5.82854L17.095 6.75289C15.7617 7.5227 14.095 6.56044 14.095 5.02084L14.095 3.17411C12.7951 2.8775 11.4276 2.86757 10.0949 3.1717L10.0949 5.02082C10.0949 6.56042 8.42825 7.52267 7.09492 6.75287L5.49353 5.82831Z" stroke="white" stroke-width="2" stroke-linejoin="round"/>
</g>
</svg>
