<svg xmlns="http://www.w3.org/2000/svg" width="30" height="30" viewBox="0 0 30 30" fill="none">
  <path d="M20.5871 6.83709C20.221 7.2032 20.221 7.7968 20.5871 8.16291L21.4867 9.0625H16.7209C15.8825 9.0625 15.1178 9.54179 14.7522 10.2964L14.4893 10.8393C14.4226 10.977 14.4226 11.1376 14.4893 11.2752L15.2004 12.7433C15.2915 12.9314 15.5593 12.9314 15.6504 12.7433L16.4397 11.1138C16.4919 11.006 16.6012 10.9375 16.7209 10.9375H21.4867L20.5871 11.8371C20.221 12.2032 20.221 12.7968 20.5871 13.1629C20.9532 13.529 21.5468 13.529 21.9129 13.1629L24.4129 10.6629C24.779 10.2968 24.779 9.7032 24.4129 9.33709L21.9129 6.83709C21.5468 6.47097 20.9532 6.47097 20.5871 6.83709Z" fill="white" fill-opacity="0.7"/>
  <path d="M12.542 19.1607C12.6087 19.023 12.6087 18.8624 12.542 18.7248L11.8309 17.2567C11.7398 17.0686 11.4719 17.0686 11.3809 17.2567L10.5915 18.8862C10.5393 18.994 10.4301 19.0625 10.3103 19.0625H6.25C5.73223 19.0625 5.3125 19.4822 5.3125 20C5.3125 20.5178 5.73223 20.9375 6.25 20.9375H10.3103C11.1488 20.9375 11.9135 20.4582 12.279 19.7036L12.542 19.1607Z" fill="white" fill-opacity="0.7"/>
  <path d="M20.5871 23.1629C20.221 22.7968 20.221 22.2032 20.5871 21.8371L21.4867 20.9375H16.7209C15.8825 20.9375 15.1178 20.4582 14.7522 19.7036L10.5915 11.1138C10.5393 11.006 10.4301 10.9375 10.3103 10.9375H6.25C5.73223 10.9375 5.3125 10.5178 5.3125 10C5.3125 9.48223 5.73223 9.0625 6.25 9.0625H10.3103C11.1488 9.0625 11.9135 9.54179 12.279 10.2964L16.4397 18.8862C16.4919 18.994 16.6012 19.0625 16.7209 19.0625H21.4867L20.5871 18.1629C20.221 17.7968 20.221 17.2032 20.5871 16.8371C20.9532 16.471 21.5468 16.471 21.9129 16.8371L24.4129 19.3371C24.779 19.7032 24.779 20.2968 24.4129 20.6629L21.9129 23.1629C21.5468 23.529 20.9532 23.529 20.5871 23.1629Z" fill="white" fill-opacity="0.7"/>
</svg>