<svg xmlns="http://www.w3.org/2000/svg" width="30" height="30" viewBox="0 0 30 30" fill="none">
  <path d="M23.4375 8.75C23.4375 8.23223 23.0178 7.8125 22.5 7.8125C21.9823 7.8125 21.5625 8.23223 21.5625 8.75V21.25C21.5625 21.7678 21.9823 22.1875 22.5 22.1875C23.0178 22.1875 23.4375 21.7678 23.4375 21.25V8.75Z" fill="white" fill-opacity="0.7"/>
  <path d="M18.0674 13.6815C18.9299 14.3489 18.9299 15.6511 18.0674 16.3184C15.3947 18.3864 12.4103 20.0164 9.22591 21.1474L8.64334 21.3543C7.55629 21.7404 6.40718 21.0049 6.25989 19.8819C5.83883 16.6712 5.83883 13.3287 6.25989 10.1181C6.40718 8.99505 7.55629 8.25957 8.64334 8.64565L9.2259 8.85255C12.4103 9.98354 15.3947 11.6135 18.0674 13.6815Z" fill="white" fill-opacity="0.7"/>
</svg>