<svg xmlns="http://www.w3.org/2000/svg" width="30" height="30" viewBox="0 0 30 30" fill="none">
  <path d="M8.4375 8.75C8.4375 8.23223 8.01777 7.8125 7.5 7.8125C6.98223 7.8125 6.5625 8.23223 6.5625 8.75V21.25C6.5625 21.7678 6.98223 22.1875 7.5 22.1875C8.01777 22.1875 8.4375 21.7678 8.4375 21.25V8.75Z" fill="white" fill-opacity="0.7"/>
  <path d="M12.3151 15.8241C11.776 15.407 11.776 14.593 12.3151 14.1759C14.9354 12.1484 17.8613 10.5503 20.9833 9.44152L21.5658 9.23462C22.2682 8.98518 23.0235 9.46041 23.1204 10.1994C23.5344 13.3561 23.5344 16.6439 23.1204 19.8006C23.0235 20.5396 22.2682 21.0148 21.5658 20.7654L20.9833 20.5585C17.8613 19.4497 14.9354 17.8516 12.3151 15.8241Z" fill="white" fill-opacity="0.7"/>
</svg>