<svg width="20" height="20" viewBox="0 0 20 20" fill="none" xmlns="http://www.w3.org/2000/svg">
<g id="Solid/Media/Volume-up">
<g id="Icon">
<path d="M12.1746 4.03809C12.0929 3.38424 11.3204 3.07942 10.8142 3.50127L6.63162 6.98676C6.55674 7.04916 6.46235 7.08333 6.36488 7.08333H3.12492C2.54962 7.08333 2.08325 7.5497 2.08325 8.125V11.875C2.08325 12.4503 2.54962 12.9167 3.12492 12.9167H6.36488C6.46235 12.9167 6.55674 12.9508 6.63162 13.0132L10.8142 16.4987C11.3204 16.9206 12.0929 16.6158 12.1746 15.9619L12.2544 15.3232C12.6963 11.7881 12.6963 8.21186 12.2544 4.67684L12.1746 4.03809Z" fill="white" fill-opacity="0.7"/>
<path d="M16.59 4.95481C16.9178 4.84642 17.2713 5.02422 17.3797 5.35194C17.8634 6.81441 18.1249 8.3773 18.1249 10C18.1249 11.6227 17.8634 13.1856 17.3797 14.6481C17.2713 14.9758 16.9178 15.1536 16.59 15.0452C16.2623 14.9368 16.0845 14.5833 16.1929 14.2556C16.6353 12.9181 16.8749 11.4877 16.8749 10C16.8749 8.51234 16.6353 7.08189 16.1929 5.74445C16.0845 5.41673 16.2623 5.0632 16.59 4.95481Z" fill="white" fill-opacity="0.7"/>
<path d="M15.0268 6.62308C14.9078 6.29908 14.5486 6.13293 14.2246 6.25198C13.9006 6.37102 13.7345 6.73018 13.8535 7.05418C14.1906 7.97163 14.3749 8.96359 14.3749 10C14.3749 10.8597 14.2481 11.6886 14.0126 12.4697C13.9995 12.5132 13.986 12.5566 13.9722 12.5998C13.9351 12.7163 13.8955 12.8316 13.8535 12.9458C13.7345 13.2698 13.9006 13.629 14.2246 13.748C14.5486 13.8671 14.9078 13.7009 15.0268 13.3769C15.075 13.2459 15.1204 13.1135 15.163 12.9799C15.1789 12.9303 15.1943 12.8805 15.2094 12.8306C15.4798 11.9337 15.6249 10.9832 15.6249 10C15.6249 8.81434 15.4139 7.67656 15.0268 6.62308Z" fill="white" fill-opacity="0.7"/>
</g>
</g>
</svg>
